<?xml version="1.0" standalone="no"?>
<!DOCTYPE svg PUBLIC "-//W3C//DTD SVG 20010904//EN"
 "http://www.w3.org/TR/2001/REC-SVG-20010904/DTD/svg10.dtd">
<svg version="1.0" xmlns="http://www.w3.org/2000/svg"
 width="2202.000000pt" height="2049.000000pt" viewBox="0 0 2202.000000 2049.000000"
 preserveAspectRatio="xMidYMid meet">

<g transform="translate(0.000000,2049.000000) scale(0.100000,-0.100000)"
fill="#007fe6" stroke="none">
<path d="M3198 18412 c-1753 -1137 -3188 -2069 -3187 -2072 0 -4 3971 -3200
4393 -3537 l52 -41 3192 1991 c1755 1096 3191 1997 3189 2002 -3 15 -4417
3717 -4436 3721 -9 1 -1450 -927 -3203 -2064z"/>
<path d="M13113 18619 c-1234 -1023 -2243 -1864 -2243 -1867 1 -9 6432 -3988
6441 -3985 16 5 4384 3566 4384 3574 0 10 -6300 4129 -6325 4135 -9 3 -952
-773 -2257 -1857z"/>
<path d="M2238 11022 c-1214 -950 -2212 -1732 -2218 -1738 -8 -8 891 -602
3185 -2107 l3196 -2097 2225 1867 2225 1867 -43 26 c-645 401 -6349 3910
-6355 3909 -4 0 -1001 -778 -2215 -1727z"/>
<path d="M14121 10805 c-1750 -1069 -3200 -1955 -3221 -1968 l-38 -23 2248
-1864 c1237 -1026 2253 -1864 2258 -1863 7 2 6333 4130 6338 4137 2 2 -4386
3521 -4394 3524 -4 1 -1440 -873 -3191 -1943z"/>
<path d="M8658 6124 c-1236 -1025 -2252 -1864 -2257 -1864 -9 0 -683 453
-1834 1232 l-57 39 0 -713 0 -713 3192 -1915 c1756 -1053 3199 -1915 3208
-1914 20 0 6390 3822 6396 3837 2 7 3 328 2 715 l-3 702 -970 -639 c-805 -530
-973 -636 -985 -626 -8 7 -1007 844 -2220 1861 -1213 1018 -2210 1853 -2215
1856 -6 3 -1021 -833 -2257 -1858z"/>
</g>
</svg>
