<?xml version="1.0" standalone="no"?>
<!DOCTYPE svg PUBLIC "-//W3C//DTD SVG 20010904//EN"
 "http://www.w3.org/TR/2001/REC-SVG-20010904/DTD/svg10.dtd">
<svg version="1.0" xmlns="http://www.w3.org/2000/svg"
 width="508.000000pt" height="508.000000pt" viewBox="0 0 508.000000 508.000000"
 preserveAspectRatio="xMidYMid meet">

<g transform="translate(0.000000,508.000000) scale(0.100000,-0.100000)"
fill="#000000" stroke="none">
<path d="M2344 5070 c-488 -41 -944 -215 -1341 -511 -127 -95 -389 -357 -484
-484 -688 -920 -687 -2157 2 -3071 92 -122 274 -311 399 -416 361 -303 810
-498 1300 -564 186 -25 493 -23 679 5 540 82 1011 312 1394 681 429 412 683
915 763 1510 25 186 23 493 -5 679 -82 540 -312 1011 -681 1394 -476 495
-1077 760 -1770 781 -85 2 -201 1 -256 -4z m751 -965 c259 -46 499 -203 645
-425 228 -348 262 -876 80 -1276 -68 -152 -202 -314 -335 -409 -367 -262 -955
-252 -1221 21 l-44 46 0 -561 0 -561 -325 0 -325 0 0 1283 c0 985 -3 1286 -12
1295 -8 8 -53 12 -135 12 l-123 0 0 270 0 270 314 0 314 0 63 -33 c77 -39 130
-104 160 -196 l22 -64 20 29 c93 133 292 254 485 294 110 23 298 25 417 5z"/>
<path d="M2654 3570 c-164 -25 -292 -115 -366 -256 -51 -98 -68 -170 -75 -319
-4 -111 -2 -143 16 -219 38 -157 127 -295 235 -363 100 -64 244 -87 369 -59
210 47 355 190 414 407 24 90 24 301 -1 389 -40 144 -133 278 -244 348 -94 60
-236 90 -348 72z"/>
</g>
</svg>
