<?xml version="1.0" encoding="utf-8"?>
<svg xmlns="http://www.w3.org/2000/svg" viewBox="0 0 433.96 83.63">
  <defs>
    <style>.cls-1{fill:#9ab0d6;}.cls-2{fill:#a1c0d5;}.cls-3{fill:#4fabba;}.cls-4{fill:#d4abad;}.cls-5{fill:#1c4075;}</style>
  </defs>
  <g id="Layer_2" data-name="Layer 2" style="" transform="matrix(0.839616, 0, 0, 0.839616, 45.807899, 12.709813)">
    <g id="Layer_1-2" data-name="Layer 1">
      <path class="cls-5" d="M81,78.12V15.32H107.1q10.19,0,15.75,5.05T128.41,35a20.5,20.5,0,0,1-2.57,10.6,16.94,16.94,0,0,1-7.34,6.68,25.65,25.65,0,0,1-11.4,2.34H83.83v-9h22.43q5.52,0,8.5-2.76c2-1.83,3-4.47,3-7.89s-1-6.06-3-7.9-4.82-2.76-8.5-2.76H91.4V78.12Zm36.63,0L101.21,54l10.1-2.24,18.5,26.35Z" transform="translate(0 -13.64)" style="fill: rgb(29, 64, 117);"/>
      <path class="cls-5" d="M157.84,79.24q-10.93,0-17.1-6.26t-6.17-17.29a25.89,25.89,0,0,1,2.85-12.47,20.24,20.24,0,0,1,8-8.18,24.38,24.38,0,0,1,12.15-2.9q10.19,0,16,6.12t5.84,16.87c0,.56,0,1.14-.05,1.73s-.08,1.23-.14,1.92H139.62v-7h32.89l-2.61,2.8a19.79,19.79,0,0,0-1.45-7.9,10.63,10.63,0,0,0-4.21-5A12.51,12.51,0,0,0,157.56,40a13,13,0,0,0-7.19,1.92,12.52,12.52,0,0,0-4.63,5.42,19.6,19.6,0,0,0-1.64,8.36q0,7.38,3.65,11.4t10.18,4A14.19,14.19,0,0,0,165,69.47,14.79,14.79,0,0,0,169.9,65l8.41,3.55Q171.67,79.24,157.84,79.24Z" transform="translate(0 -13.64)" style="fill: rgb(29, 64, 117);"/>
      <path class="cls-5" d="M201,78.12l-18.5-44.85h10.84l12.71,32.51,12.71-32.51h10.84L211.1,78.12Z" transform="translate(0 -13.64)" style="fill: rgb(29, 64, 117);"/>
      <path class="cls-5" d="M252.87,79.24a31.19,31.19,0,0,1-10.51-1.68,26.13,26.13,0,0,1-8.55-5l5.33-6.45a24.21,24.21,0,0,0,6.26,3.69,19.68,19.68,0,0,0,7.47,1.36,12,12,0,0,0,6.59-1.54,4.9,4.9,0,0,0,2.38-4.35,4.18,4.18,0,0,0-1.4-3.41,8.54,8.54,0,0,0-3.64-1.68c-1.5-.34-3.15-.67-5-1s-3.79-.59-5.75-1a20.79,20.79,0,0,1-5.47-2,11.12,11.12,0,0,1-4.11-3.78,11.62,11.62,0,0,1-1.59-6.45,11.88,11.88,0,0,1,2.29-7.29,14.68,14.68,0,0,1,6.45-4.76,26,26,0,0,1,9.76-1.69q10.67,0,17.38,5.61l-5.32,6.45a23.58,23.58,0,0,0-5.42-2.85,19,19,0,0,0-6.64-1.08,11.6,11.6,0,0,0-6.12,1.41A4.38,4.38,0,0,0,245,45.6a3.83,3.83,0,0,0,1.31,3.13,8.4,8.4,0,0,0,3.51,1.59,39.67,39.67,0,0,0,4.62.79c1.87.32,3.82.67,5.84,1.08a21.83,21.83,0,0,1,5.7,2,10.72,10.72,0,0,1,4.3,4,12.73,12.73,0,0,1,1.64,6.82,12.63,12.63,0,0,1-2.34,7.62,14.71,14.71,0,0,1-6.59,5A26.88,26.88,0,0,1,252.87,79.24Z" transform="translate(0 -13.64)" style="fill: rgb(29, 64, 117);"/>
      <path class="cls-5" d="M281.19,97.27v-64H289l2.25,9V94.75Zm23.26-18q-11.77,0-16.63-10.09L291,64.1a13.5,13.5,0,0,0,11.49,6.17,12.9,12.9,0,0,0,6.91-1.78,11.44,11.44,0,0,0,4.44-5,17.9,17.9,0,0,0,1.55-7.8q0-6.82-3.41-10.7t-9.49-3.87A13.48,13.48,0,0,0,296,42.66a14.39,14.39,0,0,0-5,4.62l-3.18-5a17.33,17.33,0,0,1,6.59-7.57,18.93,18.93,0,0,1,10-2.53q10,0,15.66,6.26t5.65,17.29a28.46,28.46,0,0,1-2.57,12.62,19,19,0,0,1-7.29,8.08A21.76,21.76,0,0,1,304.45,79.24Z" transform="translate(0 -13.64)" style="fill: rgb(29, 64, 117);"/>
      <path class="cls-5" d="M340.61,26a6.12,6.12,0,0,1-4.53-1.64,6.12,6.12,0,0,1-1.63-4.53,6.12,6.12,0,0,1,1.63-4.53,7.09,7.09,0,0,1,9.07,0,6.16,6.16,0,0,1,1.63,4.53,6.16,6.16,0,0,1-1.63,4.53A6.15,6.15,0,0,1,340.61,26Zm-5,52.14V33.27h10.09V78.12Z" transform="translate(0 -13.64)" style="fill: rgb(29, 64, 117);"/>
      <path class="cls-5" d="M358,78.12V33.27h7.85l2.25,9V78.12Zm9.53-29.44-3.08-5a15.88,15.88,0,0,1,6-8.55,17.44,17.44,0,0,1,10.28-3,16.83,16.83,0,0,1,3.65.38l-.85,9.53a14.27,14.27,0,0,0-1.63-.28,15.48,15.48,0,0,0-1.73-.09A13.78,13.78,0,0,0,367.52,48.68Z" transform="translate(0 -13.64)" style="fill: rgb(29, 64, 117);"/>
      <path class="cls-5" d="M412.38,79.24q-10.94,0-17.1-6.26t-6.17-17.29A25.89,25.89,0,0,1,392,43.22,20.17,20.17,0,0,1,400,35a24.38,24.38,0,0,1,12.15-2.9q10.18,0,16,6.12T434,55.13c0,.56,0,1.14,0,1.73s-.08,1.23-.14,1.92H394.16v-7h32.89l-2.62,2.8a19.62,19.62,0,0,0-1.45-7.9,10.56,10.56,0,0,0-4.2-5A12.53,12.53,0,0,0,412.1,40a13.05,13.05,0,0,0-7.2,1.92,12.57,12.57,0,0,0-4.62,5.42,19.6,19.6,0,0,0-1.64,8.36q0,7.38,3.65,11.4t10.18,4a14.15,14.15,0,0,0,7.1-1.64A14.79,14.79,0,0,0,424.43,65l8.41,3.55Q426.21,79.24,412.38,79.24Z" transform="translate(0 -13.64)" style="fill: rgb(29, 64, 117);"/>
    </g>
  </g>
  <g id="g-1" data-name="Layer 2" transform="matrix(1.063856, 0, 0, 1.063856, 211.188522, 107.498695)" style="">
    <g id="g-2" data-name="Layer 1">
      <rect class="cls-1" x="23.01" y="1.09" width="15.67" height="61.68" rx="7.84" transform="matrix(0.707107, 0.707107, -0.707107, 0.707107, -146.572815, -106.759911)" style=""/>
      <rect class="cls-2" x="115.724" y="31.073" width="15.67" height="62.55" rx="7.84" transform="matrix(-1, 0, 0, -1, 0, 0)" style=""/>
      <rect class="cls-4" x="23.44" y="-23.44" width="15.67" height="62.55" transform="matrix(0, 1, -1, 0, -139.072815, -117.183678)" rx="7.835" ry="7.835" style="fill: rgb(213, 171, 173);"/>
      <path class="cls-5" d="M -115.639 -78.006 L -131.329 -78.006 L -131.329 -93.696 L -122.739 -93.696 C -118.818 -93.696 -115.639 -90.517 -115.639 -86.596 L -115.639 -78.006 Z" style="transform-box: fill-box; transform-origin: 50% 50%;" transform="matrix(0.999972, 0.007507, -0.007507, 0.999972, 0, 0)"/>
    </g>
  </g>
</svg>